<?xml version="1.0" encoding="UTF-8" standalone="no"?>
<!DOCTYPE svg PUBLIC "-//W3C//DTD SVG 1.1//EN" "http://www.w3.org/Graphics/SVG/1.1/DTD/svg11.dtd">
<svg width="100%" height="100%" viewBox="0 0 1275 1465" version="1.1" xmlns="http://www.w3.org/2000/svg" xmlns:xlink="http://www.w3.org/1999/xlink" xml:space="preserve" xmlns:serif="http://www.serif.com/" style="fill-rule:evenodd;clip-rule:evenodd;stroke-linejoin:round;stroke-miterlimit:2;">
    <g id="Lag-1" serif:id="Lag 1" transform="matrix(4.16667,0,0,4.16667,0,0)">
        <g transform="matrix(1,0,0,1,298,155.47)">
            <path d="M0,-6.469C-17.705,-33.407 -48.19,-51.196 -82.835,-51.196C-84.729,-51.196 -86.609,-51.138 -88.477,-51.033L-26.647,-148.214L0,-148.214L0,-6.469ZM0,141.745L-51.147,141.745C-29.992,134.608 -12.042,120.517 0,102.196L0,141.745ZM-131.894,47.863C-131.894,20.812 -109.886,-1.196 -82.835,-1.196C-55.783,-1.196 -33.775,20.812 -33.775,47.863C-33.775,74.915 -55.783,96.923 -82.835,96.923C-109.886,96.923 -131.894,74.915 -131.894,47.863M-167.01,141.745L-167.01,100.031C-154.982,119.397 -136.495,134.332 -114.522,141.745L-167.01,141.745ZM-172.01,100.138L-172.01,141.745L-223.308,141.745C-199.972,136.951 -180.82,121.094 -172.01,100.138M-268.129,74.209L-289.958,74.209L-289.958,-23.843L-268.129,-23.843C-268.129,-39.836 -254.68,-52.847 -238.149,-52.847C-221.618,-52.847 -208.169,-39.836 -208.169,-23.843C-208.169,-7.851 -221.618,5.16 -238.149,5.161L-252.219,5.161L-252.219,45.444L-238.149,45.255L-238.149,45.205C-221.618,45.205 -208.169,58.217 -208.169,74.209C-208.169,90.202 -221.618,103.212 -238.149,103.212C-254.68,103.212 -268.129,90.202 -268.129,74.209M-289.958,141.745L-289.958,121.639C-280.195,131.616 -267.398,138.784 -253.009,141.745L-289.958,141.745ZM-172.01,48.276C-175.676,39.552 -181.133,31.71 -187.942,25.183C-181.133,18.656 -175.676,10.814 -172.01,2.089L-172.01,48.276ZM-289.958,-148.214L-85.909,-148.214L-166.851,-20.993C-166.811,-21.94 -166.776,-22.888 -166.776,-23.843C-166.776,-25.639 -166.87,-27.414 -167.01,-29.176L-167.01,-147.922L-172.01,-147.922L-172.01,-49.754C-182.626,-75.022 -208.264,-92.891 -238.149,-92.891C-258.533,-92.891 -276.941,-84.575 -289.958,-71.273L-289.958,-148.214ZM8,-156.214L-297.958,-156.214L-297.958,149.745L8,149.745L8,-156.214Z" style="fill:#77B98B;fill-rule:nonzero;"/>
        </g>
        <g transform="matrix(1,0,0,1,16.9461,324.962)">
            <path d="M0,25.852L-9.603,13.949L-9.676,13.949L-9.676,25.852L-15.773,25.852L-15.773,0L-9.676,0L-9.676,10.517L-9.566,10.517L-0.329,0L7.485,0L-3.651,11.904L8.143,25.852L0,25.852Z" style="fill:#77B98B;fill-rule:nonzero;"/>
        </g>
        <g transform="matrix(1,0,0,1,53.2401,337.998)">
            <path d="M0,-0.219C0,-1.338 -0.183,-2.385 -0.548,-3.359C-0.913,-4.332 -1.418,-5.166 -2.063,-5.861C-2.708,-6.554 -3.487,-7.102 -4.4,-7.503C-5.312,-7.905 -6.317,-8.106 -7.412,-8.106C-8.508,-8.106 -9.506,-7.905 -10.406,-7.503C-11.307,-7.102 -12.086,-6.554 -12.743,-5.861C-13.4,-5.166 -13.906,-4.332 -14.258,-3.359C-14.611,-2.385 -14.788,-1.338 -14.788,-0.219C-14.788,0.95 -14.605,2.027 -14.24,3.012C-13.875,3.999 -13.37,4.844 -12.725,5.551C-12.08,6.257 -11.307,6.809 -10.406,7.212C-9.506,7.613 -8.508,7.814 -7.412,7.814C-6.317,7.814 -5.319,7.613 -4.418,7.212C-3.518,6.809 -2.739,6.257 -2.082,5.551C-1.424,4.844 -0.913,3.999 -0.548,3.012C-0.183,2.027 0,0.95 0,-0.219M6.682,-0.219C6.682,1.826 6.329,3.694 5.623,5.385C4.917,7.078 3.937,8.526 2.684,9.731C1.43,10.935 -0.061,11.867 -1.789,12.524C-3.518,13.181 -5.392,13.51 -7.412,13.51C-9.433,13.51 -11.301,13.181 -13.017,12.524C-14.733,11.867 -16.218,10.935 -17.472,9.731C-18.726,8.526 -19.705,7.078 -20.411,5.385C-21.117,3.694 -21.47,1.826 -21.47,-0.219C-21.47,-2.287 -21.117,-4.157 -20.411,-5.823C-19.705,-7.49 -18.726,-8.909 -17.472,-10.077C-16.218,-11.245 -14.733,-12.146 -13.017,-12.78C-11.301,-13.412 -9.433,-13.729 -7.412,-13.729C-5.392,-13.729 -3.518,-13.412 -1.789,-12.78C-0.061,-12.146 1.43,-11.245 2.684,-10.077C3.937,-8.909 4.917,-7.49 5.623,-5.823C6.329,-4.157 6.682,-2.287 6.682,-0.219" style="fill:#77B98B;fill-rule:nonzero;"/>
        </g>
        <g transform="matrix(1,0,0,1,87.7811,324.962)">
            <path d="M0,25.852L-10.406,8.947L-10.516,8.947L-10.37,25.852L-16.431,25.852L-16.431,0L-9.311,0L1.059,16.87L1.168,16.87L1.022,0L7.083,0L7.083,25.852L0,25.852Z" style="fill:#77B98B;fill-rule:nonzero;"/>
        </g>
        <g transform="matrix(1,0,0,1,121.154,344.095)">
            <path d="M0,-12.414C-0.536,-13.095 -1.236,-13.637 -2.1,-14.039C-2.964,-14.44 -3.797,-14.642 -4.601,-14.642C-5.015,-14.642 -5.435,-14.604 -5.86,-14.531C-6.287,-14.459 -6.67,-14.318 -7.011,-14.112C-7.352,-13.904 -7.638,-13.637 -7.869,-13.309C-8.1,-12.979 -8.215,-12.56 -8.215,-12.049C-8.215,-11.61 -8.124,-11.245 -7.941,-10.953C-7.759,-10.661 -7.491,-10.406 -7.138,-10.186C-6.786,-9.968 -6.366,-9.767 -5.878,-9.584C-5.392,-9.401 -4.844,-9.213 -4.235,-9.018C-3.359,-8.726 -2.446,-8.403 -1.497,-8.051C-0.548,-7.697 0.316,-7.229 1.095,-6.644C1.874,-6.06 2.52,-5.336 3.031,-4.473C3.542,-3.608 3.797,-2.531 3.797,-1.241C3.797,0.244 3.523,1.528 2.976,2.611C2.428,3.694 1.691,4.589 0.767,5.295C-0.159,6.001 -1.217,6.524 -2.41,6.865C-3.603,7.205 -4.833,7.376 -6.098,7.376C-7.948,7.376 -9.737,7.053 -11.465,6.408C-13.194,5.764 -14.63,4.845 -15.773,3.651L-11.684,-0.511C-11.051,0.269 -10.218,0.92 -9.183,1.442C-8.149,1.967 -7.12,2.228 -6.098,2.228C-5.636,2.228 -5.185,2.179 -4.747,2.082C-4.309,1.984 -3.925,1.826 -3.597,1.607C-3.268,1.388 -3.007,1.096 -2.812,0.731C-2.617,0.365 -2.52,-0.072 -2.52,-0.584C-2.52,-1.07 -2.642,-1.484 -2.885,-1.825C-3.128,-2.166 -3.475,-2.476 -3.925,-2.756C-4.376,-3.036 -4.936,-3.291 -5.605,-3.523C-6.274,-3.754 -7.035,-4.004 -7.887,-4.271C-8.715,-4.539 -9.524,-4.855 -10.315,-5.221C-11.106,-5.586 -11.812,-6.055 -12.433,-6.627C-13.053,-7.198 -13.553,-7.893 -13.93,-8.708C-14.308,-9.523 -14.496,-10.516 -14.496,-11.684C-14.496,-13.12 -14.204,-14.35 -13.619,-15.371C-13.035,-16.393 -12.269,-17.233 -11.319,-17.891C-10.37,-18.548 -9.299,-19.028 -8.106,-19.333C-6.914,-19.638 -5.708,-19.79 -4.491,-19.79C-3.031,-19.79 -1.54,-19.521 -0.018,-18.986C1.503,-18.45 2.835,-17.659 3.98,-16.613L0,-12.414Z" style="fill:#77B98B;fill-rule:nonzero;"/>
        </g>
        <g transform="matrix(1,0,0,1,157.501,331.151)">
            <path d="M0,14.168C-0.523,15.446 -1.272,16.541 -2.245,17.454C-3.22,18.367 -4.393,19.079 -5.769,19.59C-7.144,20.102 -8.671,20.356 -10.351,20.356C-12.055,20.356 -13.588,20.102 -14.952,19.59C-16.315,19.079 -17.471,18.367 -18.42,17.454C-19.37,16.541 -20.1,15.446 -20.611,14.168C-21.122,12.89 -21.378,11.473 -21.378,9.914L-21.378,-6.188L-15.17,-6.188L-15.17,9.403C-15.17,10.109 -15.079,10.778 -14.896,11.411C-14.714,12.045 -14.435,12.61 -14.057,13.109C-13.68,13.608 -13.181,14.004 -12.56,14.296C-11.939,14.588 -11.19,14.733 -10.314,14.733C-9.438,14.733 -8.689,14.588 -8.069,14.296C-7.448,14.004 -6.943,13.608 -6.554,13.109C-6.165,12.61 -5.884,12.045 -5.714,11.411C-5.544,10.778 -5.458,10.109 -5.458,9.403L-5.458,-6.188L0.785,-6.188L0.785,9.914C0.785,11.473 0.523,12.89 0,14.168" style="fill:#77B98B;fill-rule:nonzero;"/>
        </g>
        <g transform="matrix(1,0,0,1,170.627,324.962)">
            <path d="M0,25.852L0,0L6.28,0L6.28,20.412L16.285,20.412L16.285,25.852L0,25.852Z" style="fill:#77B98B;fill-rule:nonzero;"/>
        </g>
        <g transform="matrix(1,0,0,1,207.724,343.912)">
            <path d="M0,-12.049L-3.286,-3.176L3.214,-3.176L0,-12.049ZM6.937,6.901L4.93,1.826L-5.075,1.826L-6.974,6.901L-13.765,6.901L-2.921,-18.95L3.141,-18.95L13.875,6.901L6.937,6.901Z" style="fill:#77B98B;fill-rule:nonzero;"/>
        </g>
        <g transform="matrix(1,0,0,1,239.928,345.483)">
            <path d="M0,-15.19L0,5.331L-6.243,5.331L-6.243,-15.19L-13.546,-15.19L-13.546,-20.521L7.303,-20.521L7.303,-15.19L0,-15.19Z" style="fill:#77B98B;fill-rule:nonzero;"/>
        </g>
        <g transform="matrix(1,0,0,1,257.38,324.962)">
            <path d="M0,25.852L0,0L17.381,0L17.381,5.259L6.025,5.259L6.025,10.152L16.76,10.152L16.76,15.154L6.025,15.154L6.025,20.521L18.038,20.521L18.038,25.852L0,25.852Z" style="fill:#77B98B;fill-rule:nonzero;"/>
        </g>
        <g transform="matrix(1,0,0,1,297.909,345.483)">
            <path d="M0,-15.19L0,5.331L-6.243,5.331L-6.243,-15.19L-13.546,-15.19L-13.546,-20.521L7.303,-20.521L7.303,-15.19L0,-15.19Z" style="fill:#77B98B;fill-rule:nonzero;"/>
        </g>
        <g transform="matrix(-1,0,0,1,256.982,-336.818)">
            <rect x="125.992" y="343.958" width="4.998" height="0.409" style="fill:#77B98B;"/>
        </g>
    </g>
</svg>
